<svg xmlns="http://www.w3.org/2000/svg" xml:space="preserve" width="192.049mm" height="209.212mm" style="shape-rendering:geometricPrecision; text-rendering:geometricPrecision; image-rendering:optimizeQuality; fill-rule:evenodd; clip-rule:evenodd"
viewBox="0 0 18765 20442"
 xmlns:xlink="http://www.w3.org/1999/xlink">
 <defs>
  <style type="text/css">
   <![CDATA[
    .str0 {stroke:black;stroke-width:129.262}
    .fil1 {fill:none;fill-rule:nonzero}
    .fil4 {fill:blue;fill-rule:nonzero}
    .fil2 {fill:lime;fill-rule:nonzero}
    .fil0 {fill:red;fill-rule:nonzero}
    .fil3 {fill:yellow;fill-rule:nonzero}
   ]]>
  </style>
 </defs>
 <g id="Layer_x0020_1">
  <metadata id="CorelCorpID_0Corel-Layer"/>
  <path fill="red" fill-rule="nonzero" class="fil0" d="M3169 2472c0,-537 -27,-1339 -80,-2407l2471 0c27,0 48,719 64,2157 1159,-87 2067,-130 2721,-130l-820 2471c-168,-70 -471,-105 -911,-105 -257,0 -587,14 -990,41 0,342 -11,1057 -32,2141l-2471 0 48 -1867c-1309,193 -2332,396 -3067,612l820 -2471c489,-171 1237,-319 2247,-442z"/>
  <path fill="none" fill-rule="nonzero" stroke="black" stroke-wdith="100" id="1" class="fil1 str0" d="M3169 2472c0,-537 -27,-1339 -80,-2407l2471 0c27,0 48,719 64,2157 1159,-87 2067,-130 2721,-130l-820 2471c-168,-70 -471,-105 -911,-105 -257,0 -587,14 -990,41 0,342 -11,1057 -32,2141l-2471 0 48 -1867c-1309,193 -2332,396 -3067,612l820 -2471c489,-171 1237,-319 2247,-442z"/>
  <path fill="lime" fill-rule="nonzero"  class="fil2" d="M10368 5695l822 -2473c713,-241 1910,-440 3589,-596 1605,-150 2881,-225 3832,-225l-820 2471c-168,-70 -465,-105 -895,-105 -1154,0 -2632,155 -4434,467 -774,136 -1471,289 -2093,460z"/>
  <path id="1" fill="none" fill-rule="nonzero" stroke="black" stroke-wdith="129.262" class="fil1 str0" d="M10368 5695l822 -2473c713,-241 1910,-440 3589,-596 1605,-150 2881,-225 3832,-225l-820 2471c-168,-70 -465,-105 -895,-105 -1154,0 -2632,155 -4434,467 -774,136 -1471,289 -2093,460z"/>
  <path fill="yellow" fill-rule="nonzero" class="fil3" d="M5208 13944c692,-900 1232,-1853 1619,-2856l1713 1489c-660,1385 -1291,2528 -1892,3429 1041,1551 1562,2502 1562,2849l-1416 1417c-473,-843 -966,-1678 -1482,-2503 -1138,1266 -2338,2063 -3598,2391l-1385 -1917c1202,-612 2373,-1507 3511,-2687 -1589,-2362 -2801,-3575 -3639,-3639l1352 -1489c710,0 1927,1171 3655,3516z"/>
  <path fill="none" fill-rule="nonzero" stroke="black" stroke-wdith="129.262" id="1" class="fil1 str0" d="M5208 13944c692,-900 1232,-1853 1619,-2856l1713 1489c-660,1385 -1291,2528 -1892,3429 1041,1551 1562,2502 1562,2849l-1416 1417c-473,-843 -966,-1678 -1482,-2503 -1138,1266 -2338,2063 -3598,2391l-1385 -1917c1202,-612 2373,-1507 3511,-2687 -1589,-2362 -2801,-3575 -3639,-3639l1352 -1489c710,0 1927,1171 3655,3516z"/>
  <path fill="blue" fill-rule="nonzero" class="fil4" d="M14857 11677c324,0 599,115 827,345 227,230 340,506 340,830 0,351 -118,640 -353,864 -236,225 -517,337 -846,337 -318,0 -594,-118 -827,-351 -233,-233 -351,-508 -351,-827 0,-335 118,-618 351,-851 233,-233 519,-348 859,-348zm0 5591c324,0 599,115 827,345 227,230 340,506 340,830 0,356 -118,645 -353,870 -236,219 -517,329 -846,329 -318,0 -594,-115 -827,-348 -233,-233 -351,-508 -351,-827 0,-335 118,-618 351,-851 233,-233 519,-348 859,-348zm-1389 -2534l3966 0c409,0 658,-5 747,-13 104,-16 169,-24 195,-24 203,0 305,104 305,313 0,115 -43,318 -134,607 -88,289 -177,522 -265,693 -131,246 -284,369 -455,369l-1247 -110 -3511 0c-629,0 -1148,16 -1560,48 -64,5 -120,5 -174,5 -99,0 -185,-29 -254,-88 -70,-62 -107,-134 -107,-217 0,-88 56,-294 169,-616 112,-321 209,-551 286,-693 136,-241 310,-361 527,-361 56,0 131,5 227,16 506,48 934,70 1285,70z"/>
  <path fill="none" fill-rule="nonzero" stroke="black" stroke-wdith="129.262" id="1" class="fil1 str0" d="M14857 11677c324,0 599,115 827,345 227,230 340,506 340,830 0,351 -118,640 -353,864 -236,225 -517,337 -846,337 -318,0 -594,-118 -827,-351 -233,-233 -351,-508 -351,-827 0,-335 118,-618 351,-851 233,-233 519,-348 859,-348zm0 5591c324,0 599,115 827,345 227,230 340,506 340,830 0,356 -118,645 -353,870 -236,219 -517,329 -846,329 -318,0 -594,-115 -827,-348 -233,-233 -351,-508 -351,-827 0,-335 118,-618 351,-851 233,-233 519,-348 859,-348zm-1389 -2534l3966 0c409,0 658,-5 747,-13 104,-16 169,-24 195,-24 203,0 305,104 305,313 0,115 -43,318 -134,607 -88,289 -177,522 -265,693 -131,246 -284,369 -455,369l-1247 -110 -3511 0c-629,0 -1148,16 -1560,48 -64,5 -120,5 -174,5 -99,0 -185,-29 -254,-88 -70,-62 -107,-134 -107,-217 0,-88 56,-294 169,-616 112,-321 209,-551 286,-693 136,-241 310,-361 527,-361 56,0 131,5 227,16 506,48 934,70 1285,70z"/>
 </g>
</svg>
